<?xml version="1.0" encoding="iso-8859-1"?>
<!-- Generator: Adobe Illustrator 19.0.0, SVG Export Plug-In . SVG Version: 6.00 Build 0)  -->
<svg version="1.1" id="Layer_1" xmlns="http://www.w3.org/2000/svg" xmlns:xlink="http://www.w3.org/1999/xlink" x="0px" y="0px"
	 viewBox="0 0 511.998 511.998" style="enable-background:new 0 0 511.998 511.998;" xml:space="preserve">
<g>
	<g>
		<path d="M144.585,92.942c-21.921-3.349-42.405,11.708-45.754,33.629c-3.348,21.922,11.708,42.406,33.63,45.754
			c9.13,1.395,18.007-0.412,25.504-4.57l1.887-11.203c1.849-10.976,9.239-19.63,18.818-23.594
			C178.854,113.307,164.579,95.996,144.585,92.942z"/>
	</g>
</g>
<g>
	<g>
		<path d="M190.541,339.967c-17.002,0-30.501-14.69-28.823-31.81l-4.048,0.012c0.164-10.376,0.463-29.41,0.832-52.857
			l-39.102-25.305l53.094,19.206c10.708,3.875,22.251-2.958,24.126-14.085l11.86-70.382c1.67-9.907-5.009-19.292-14.916-20.961
			c-9.908-1.665-19.292,5.01-20.961,14.916l-8.237,48.881l-42.262-15.287l29.302,4.652c-5.781-6.505-13.993-10.169-22.554-10.23
			l-13.02-0.094c-25.199-0.18-45.712,20.254-45.643,45.441l0.242,88.317c0.038,13.964,9.653,26.389,23.654,29.602
			c-19.964,0-18.507,0-38.289,0l-25.96-132.073c-1.604-8.16-9.52-13.474-17.68-11.871c-8.16,1.604-13.475,9.519-11.871,17.68
			l28.351,144.227c1.388,7.062,7.579,12.154,14.775,12.154h39.08v53.817H65.231c-2.954,0-5.788,1.174-7.877,3.263l-20.424,20.423
			c-4.35,4.35-4.35,11.404,0,15.756c4.35,4.35,11.404,4.35,15.756,0l17.16-17.161h46.113l7.168,7.168
			c-1.642-6.955-1.257-14.462,1.573-21.611l2.292-5.791c-1.867-1.317-4.102-2.046-6.417-2.046h-15.802v-53.817h44.047
			c0.096,0,0.188-0.012,0.283-0.015c8.185-0.153,14.775-6.823,14.775-15.044c0-5.696-3.164-10.651-7.829-13.209l19.717-0.058
			l-37.7,95.269c-4.436,11.21,1.056,23.895,12.265,28.331s23.895-1.055,28.331-12.265l48.73-123.143H190.541z"/>
	</g>
</g>
<g>
	<g>
		<path d="M252.404,149.045c-0.57-4.888-4.997-8.391-9.885-7.82l-26.216,3.058c3.393,5.01,5.336,11.007,5.354,17.321l22.927-2.674
			C249.473,158.359,252.974,153.934,252.404,149.045z"/>
	</g>
</g>
<g>
	<g>
		<path d="M319.247,37.765c-0.37-1.621-1.816-2.766-3.478-2.756c-1.662,0.011-3.093,1.175-3.442,2.801
			c-0.538,2.501-1.279,5.048-2.325,7.494c-5.234,12.536-16.573,19.338-29.403,23.935c-5.831,2.245-14.678,3.953-24.032,10.153
			c-12.225,8.057-17.631,18.745-19.092,27.671c-0.27,1.648,0.647,3.261,2.201,3.87c1.554,0.61,3.324,0.053,4.248-1.338
			c11.914-17.932,32.662-19.888,42.771-23.611c18.111-6.575,32.483-19.704,33.446-38.697
			C320.28,44.061,319.946,40.835,319.247,37.765z"/>
	</g>
</g>
<g>
	<g>
		<polygon points="292.921,349.375 277.156,389.184 277.156,434.083 306.341,434.064 316.392,408.685 		"/>
	</g>
</g>
<g>
	<g>
		<circle cx="393.528" cy="132.636" r="40.149"/>
	</g>
</g>
<g>
	<g>
		<path d="M316.982,294.292H190.541c-9.229,0-16.71,7.482-16.71,16.71c0,9.229,7.482,16.71,16.71,16.71h52.081v118.624h-34.703
			c-8.316,0-15.058,6.742-15.058,15.058s6.742,15.058,15.058,15.058h91.687c8.316,0,15.058-6.742,15.058-15.058
			s-6.742-15.058-15.058-15.058h-34.704V327.713h52.081c9.229,0,16.71-7.482,16.71-16.71
			C333.692,301.774,326.211,294.292,316.982,294.292z"/>
	</g>
</g>
<g>
	<g>
		<path d="M499.842,206.04c-8.156-1.602-16.075,3.711-17.68,11.871l-20.68,105.2c0.192-2.062,0.116,4.449,0.374-89.889
			c0.071-25.838-20.973-46.774-46.796-46.59l-11.863,0.085c-16.923,0.121-30.508,14.028-30.241,30.942l0.29,18.427l22.884-21.828
			l-24.238,35.147l-58.282-6.533c-2.083-7.481-16.418-58.955-18.38-65.999c-1.651-5.927-7.791-9.395-13.72-7.744
			c-5.927,1.65-9.395,7.794-7.744,13.72c1.917,6.885,15.373,55.202,17.528,62.94c-3.605,2.904-6.112,7.175-6.667,12.14
			c-1.118,9.984,6.068,18.985,16.052,20.105c84.359,9.455,78.529,8.853,80.011,8.853c5.935,0,11.555-2.908,14.972-7.865
			l24.802-35.965l-15.04,41.751c-3.389,9.407-12.748,14.942-22.268,13.874c-6.912-0.781-4.946-0.559-8.94-1.007l0.165,10.491
			l-28.583-0.084c1.72,17.127-11.772,31.881-28.818,31.881h-12.323l48.73,123.143c4.436,11.209,17.117,16.701,28.331,12.265
			c11.21-4.436,16.701-17.12,12.265-28.331l-26.491-66.944c14.408,0,24.658,0,39.5,0v76.466h33.467l17.16,17.161
			c4.35,4.35,11.404,4.35,15.756,0c4.35-4.35,4.35-11.404,0-15.756l-20.423-20.423c-2.089-2.089-4.923-3.263-7.877-3.263h-15.801
			v-54.186h39.313c7.197,0,13.387-5.092,14.775-12.154l28.351-144.227C513.317,215.56,508.002,207.644,499.842,206.04z
			 M456.2,349.984c-6.763,0-11.181,0-18.235,0c9.865-2.263,17.938-9.234,21.599-18.709
			C459.488,333.733,459.708,332.14,456.2,349.984z"/>
	</g>
</g>
<g>
</g>
<g>
</g>
<g>
</g>
<g>
</g>
<g>
</g>
<g>
</g>
<g>
</g>
<g>
</g>
<g>
</g>
<g>
</g>
<g>
</g>
<g>
</g>
<g>
</g>
<g>
</g>
<g>
</g>
</svg>
